<svg id="common-logo-content" xmlns="http://www.w3.org/2000/svg" width="100%" height="100%" viewBox="0 0 749 246" preserveAspectRatio="xMaxYMid">
    <g fill="#336699">
        <path d="M19.489,205.238 C21.107,205.543 22.958,205.698 25.038,205.93 C27.119,206.083 28.966,206.16 30.583,206.16 C32.204,206.16 34.052,206.083 36.056,205.93 C38.057,205.698 39.83,205.542 41.526,205.238 L41.526,108.704 L70.571,108.704 C70.954,106.085 71.184,103.313 71.184,100.537 C71.184,97.456 70.955,94.375 70.571,91.449 L41.526,91.449 L41.526,84.129 C41.526,78.967 41.985,74.653 42.989,71.339 C44.064,68.029 45.532,65.406 47.379,63.56 C49.231,61.709 51.385,60.478 54.004,59.783 C56.627,59.166 59.552,58.783 62.788,58.783 C65.561,58.783 67.949,59.015 69.954,59.399 L75.191,60.325 C76.042,57.548 76.808,54.776 77.272,52.158 C77.814,49.461 78.197,46.302 78.506,42.603 C76.042,41.832 73.345,41.294 70.572,40.911 C67.72,40.601 64.485,40.369 60.787,40.369 C47.306,40.369 37.058,44.067 30.046,51.387 C22.959,58.707 19.49,69.413 19.49,83.437 L19.49,91.449 L0.846,91.449 C0.229,93.912 0,96.838 0,100.074 C0,103.464 0.229,106.315 0.846,108.704 L19.49,108.704 L19.49,205.238 L19.489,205.238 Z M19.489,205.238"></path>
        <path d="M85.283,205.238 C87.135,205.543 88.981,205.698 90.987,205.93 C92.987,206.083 94.76,206.16 96.378,206.16 C97.995,206.16 99.846,206.083 101.848,205.93 C103.852,205.698 105.624,205.542 107.321,205.238 L107.321,148.687 C107.321,140.983 108.167,134.667 109.86,129.815 C111.557,124.883 113.866,121.106 116.718,118.258 C119.644,115.482 122.879,113.481 126.502,112.402 C130.125,111.247 133.898,110.709 137.904,110.709 L140.91,110.709 C142.139,110.709 143.373,110.863 144.608,111.167 C144.837,109.396 145.07,107.548 145.3,105.623 C145.533,103.697 145.687,101.846 145.687,100.074 C145.687,98.457 145.608,96.918 145.454,95.454 C145.301,93.912 145.071,92.525 144.837,91.215 C143.917,91.061 142.837,90.986 141.603,90.832 C140.293,90.832 139.06,90.752 137.904,90.752 C129.892,90.752 123.342,92.604 118.26,96.301 C113.174,99.999 109.093,104.313 106.008,109.396 C106.008,106.932 105.778,103.851 105.316,100.229 C104.854,96.531 104.39,93.604 104.007,91.448 C102.619,91.14 101.155,90.906 99.538,90.752 C97.921,90.598 96.303,90.523 94.685,90.523 C92.988,90.523 91.45,90.598 89.987,90.752 C88.52,90.906 86.903,91.14 85.284,91.448 L85.284,205.238 L85.283,205.238 Z M85.283,205.238"></path>
        <path d="M176.962,179.274 C172.189,171.878 169.799,161.632 169.799,148.459 C169.799,135.286 172.189,125.038 176.962,117.717 C181.819,110.401 189.289,106.703 199.536,106.703 C209.704,106.703 217.255,110.4 222.186,117.717 C227.039,125.038 229.506,135.285 229.506,148.459 C229.506,161.633 227.038,171.879 222.186,179.274 C217.255,186.67 209.704,190.369 199.536,190.369 C189.289,190.369 181.819,186.671 176.962,179.274 L176.962,179.274 Z M222.804,203.388 C229.428,200.308 234.976,196.146 239.446,190.831 C243.915,185.516 247.224,179.196 249.305,171.954 C251.464,164.713 252.54,156.854 252.54,148.459 C252.54,139.983 251.463,132.204 249.305,124.884 C247.224,117.717 243.915,111.402 239.446,106.086 C234.976,100.771 229.428,96.532 222.804,93.451 C216.178,90.291 208.395,88.752 199.536,88.752 C190.598,88.752 182.893,90.292 176.195,93.451 C169.566,96.532 164.021,100.771 159.552,106.086 C155.162,111.402 151.848,117.717 149.692,124.884 C147.534,132.204 146.454,139.984 146.454,148.459 C146.454,156.855 147.534,164.713 149.692,171.954 C151.848,179.196 155.162,185.516 159.552,190.831 C164.021,196.145 169.566,200.308 176.195,203.388 C182.894,206.393 190.598,207.857 199.536,207.857 C208.395,207.856 216.178,206.393 222.804,203.388 L222.804,203.388 Z M222.804,203.388"></path>
        <path d="M263.942,205.238 C265.559,205.543 267.41,205.698 269.491,205.93 C271.571,206.083 273.418,206.16 275.035,206.16 C276.657,206.16 278.428,206.083 280.429,205.93 C282.435,205.698 284.282,205.542 285.898,205.238 L285.898,147.533 C285.898,140.599 286.745,134.667 288.441,129.66 C290.138,124.729 292.368,120.722 295.22,117.642 C297.996,114.482 301.306,112.172 305.004,110.709 C308.702,109.242 312.554,108.475 316.715,108.475 C323.882,108.475 329.043,111.018 332.278,115.945 C335.513,120.878 337.131,128.656 337.131,139.137 L337.131,205.239 C338.748,205.544 340.599,205.699 342.601,205.931 C344.606,206.084 346.377,206.161 347.995,206.161 C349.613,206.161 351.464,206.084 353.544,205.931 C355.624,205.699 357.472,205.543 359.089,205.239 L359.089,133.126 C359.089,118.489 356.009,107.47 349.767,99.921 C343.606,92.526 333.976,88.752 320.956,88.752 C316.333,88.752 312.173,89.37 308.32,90.679 C304.468,91.909 301.078,93.531 298.072,95.532 C295.146,97.536 292.525,99.767 290.214,102.31 C287.905,104.778 286.054,107.316 284.591,109.86 C284.591,107.317 284.362,104.161 283.899,100.383 C283.436,96.61 283.048,93.605 282.589,91.449 C280.968,91.141 279.429,90.907 278.042,90.753 C276.578,90.599 275.115,90.524 273.497,90.524 C271.88,90.524 270.263,90.599 268.721,90.753 C267.103,90.907 265.56,91.141 263.943,91.449 L263.943,205.238 L263.942,205.238 Z M263.942,205.238"></path>
        <path d="M373.104,173.504 C373.104,185.524 376.03,194.074 382.042,199.234 C388.05,204.395 396.37,207.017 407.001,207.017 C410.699,207.017 414.167,206.785 417.478,206.476 C420.717,206.091 423.797,205.549 426.804,204.783 C426.804,202.471 426.649,199.697 426.416,196.616 C426.187,193.457 425.645,190.45 424.568,187.524 C422.797,187.987 420.792,188.371 418.557,188.757 C416.402,189.066 414.012,189.295 411.469,189.295 C408.234,189.295 405.536,188.986 403.382,188.295 C401.223,187.603 399.529,186.29 398.295,184.287 C396.986,182.287 396.14,179.436 395.599,175.738 C395.136,172.04 394.828,167.107 394.828,160.868 L394.828,108.943 L423.642,108.943 C423.951,107.475 424.18,106.012 424.334,104.474 C424.489,103.011 424.567,101.469 424.567,99.85 C424.567,96.77 424.258,93.918 423.641,91.454 L394.827,91.454 L394.827,63.36 C394.827,63.36 394.585,62.962 392.085,62.696 C388.048,62.347 387.036,62.238 383.913,62.226 C380.79,62.214 379.651,62.309 375.851,62.644 C373.875,62.84 373.195,63.04 373.103,63.27 L373.103,108.943 L373.103,173.504 L373.104,173.504 Z M373.104,173.504"></path>
    </g>

    <path fill="#669933" d="M482.652,0 C459.306,0 447.059,12.248 447.059,35.593 L447.059,199.880417 C454.383628,162.411179 458.478,138.293427 470.864,116.973427 L470.864,43.527 C472.48,43.218 474.253,42.988 476.257,42.835 C478.259,42.756 480.111,42.681 481.728,42.681 C483.346,42.681 485.117,42.756 487.119,42.835 C489.124,42.989 490.972,43.219 492.592,43.527 L492.592001,87.7872086 C492.592001,87.7872086 536.80839,65.5794902 588.576334,48.7353897 C635.81578,33.3647593 690.394181,25.2675148 739.28956,8.72492313 C733.70956,3.71492313 723.459,0 712.85,0 L482.652,0 Z M482.652,0"></path>

    <g fill="#4E842A">
        <path d="M737.687,7.49 C737.574,7.51 737.463,7.524 737.347,7.549 C634.87,42.22 544.656,34.967 492.59,82.849 L492.59,171.799 C492.59,175.961 492.896,179.195 493.667,181.51 C494.438,183.899 495.363,185.744 496.672,186.979 C497.906,188.209 499.444,189.059 501.141,189.442 C502.834,189.751 504.607,189.985 506.532,189.985 C507.921,189.985 509.385,189.907 511.081,189.751 C512.773,189.597 514.236,189.368 515.47,189.06 C516.781,194.222 517.476,199.845 517.476,205.931 C515.396,206.702 512.774,207.165 509.847,207.396 C506.92,207.625 504.149,207.705 501.681,207.705 C497.366,207.705 493.359,207.166 489.741,206.162 C485.965,205.16 482.728,203.389 479.956,201.08 C477.105,198.691 474.871,195.531 473.253,191.525 C471.636,187.517 470.865,182.587 470.865,176.654 L470.865,110.088 C458.479,131.408 450.271,159.697 447.06,198.005 L447.06,210.322 C447.06,233.668 459.307,245.916 482.653,245.916 L712.85,245.916 C736.193,245.916 748.445,233.668 748.445,210.322 L748.445,35.593 C748.445,22.858 744.791,13.434 737.687,7.49 L737.687,7.49 Z M613.623,203.232 C608.383,204.466 602.142,205.697 594.746,206.931 C587.35,208.165 579.722,208.783 572.096,208.783 C564.855,208.783 558.228,208.166 552.449,206.855 C546.596,205.468 541.59,203.386 537.583,200.382 C533.498,197.454 530.341,193.681 528.183,189.058 C525.95,184.511 524.871,178.964 524.871,172.415 C524.871,166.101 526.102,160.476 528.725,155.698 C531.263,150.921 534.811,146.915 539.202,143.68 C543.671,140.518 548.754,138.209 554.531,136.592 C560.308,135.049 566.396,134.278 572.79,134.278 C577.489,134.278 581.342,134.357 584.347,134.587 C587.428,134.896 589.972,135.128 592.051,135.358 L592.051,131.198 C592.051,122.419 589.818,116.407 585.426,113.016 C580.957,109.548 574.563,107.855 566.087,107.855 C560.926,107.855 556.074,108.239 551.529,109.089 C547.06,109.857 542.671,110.937 538.355,112.324 C535.503,107.467 534.116,101.615 534.116,94.757 C539.202,93.139 544.746,91.905 550.759,90.984 C556.845,90.134 562.698,89.674 568.321,89.674 C583.117,89.674 594.365,93.064 602.069,99.763 C609.694,106.545 613.625,117.252 613.625,132.047 L613.625,203.232 L613.623,203.232 Z M714.39,192.295 C703.373,203.313 687.503,208.783 666.856,208.783 C660.306,208.783 653.607,208.166 646.749,206.931 C639.892,205.697 634.038,204.234 629.34,202.615 L629.34,43.527 C630.957,43.218 632.729,42.988 634.81,42.835 C636.736,42.756 638.582,42.681 640.201,42.681 C641.818,42.681 643.669,42.756 645.75,42.835 C647.829,42.989 649.678,43.219 651.295,43.527 L651.295,106.085 C653.991,101.692 658.077,97.839 663.7,94.529 C669.325,91.294 676.179,89.675 684.116,89.675 C690.974,89.675 697.211,90.831 702.989,92.986 C708.766,95.22 713.699,98.689 717.859,103.312 C722.02,108.011 725.179,113.943 727.489,121.104 C729.8,128.271 730.958,136.747 730.958,146.452 C730.957,166.021 725.408,181.275 714.39,192.295 L714.39,192.295 Z M714.39,192.295"></path>
        <path d="M592.048,188.826 C589.197,189.596 586.04,190.135 582.418,190.523 C578.72,190.904 575.256,191.06 571.863,191.06 C569.243,191.06 566.393,190.904 563.467,190.677 C560.461,190.368 557.768,189.521 555.3,188.208 C552.91,186.823 550.831,184.972 549.213,182.429 C547.595,179.966 546.824,176.423 546.824,171.952 C546.824,165.02 549.213,159.858 553.99,156.47 C558.768,153.081 565.78,151.384 574.947,151.384 C577.336,151.384 580.183,151.538 583.572,151.847 C587.041,152.077 589.814,152.384 592.048,152.693 L592.048,188.826 L592.048,188.826 Z M592.048,188.826"></path>
        <path d="M679.955,108.549 C676.486,108.549 673.176,109.091 669.786,110.246 C666.472,111.322 663.467,113.094 660.615,115.561 C657.766,117.951 655.532,121.26 653.837,125.268 C652.145,129.353 651.294,134.28 651.294,140.059 L651.294,187.75 C653.99,188.67 656.764,189.287 659.849,189.676 C662.85,189.985 666.01,190.213 669.245,190.213 C674.715,190.213 679.8,189.367 684.499,187.672 C689.122,185.899 693.129,183.356 696.518,179.891 C699.987,176.424 702.604,171.953 704.685,166.563 C706.687,161.168 707.691,154.776 707.691,147.379 C707.691,135.129 705.531,125.575 701.217,118.722 C696.901,111.938 689.814,108.549 679.955,108.549 L679.955,108.549 Z M679.955,108.549"></path>
    </g>
</svg>
